<svg width="209" height="209" viewBox="0 0 209 209" fill="none" xmlns="http://www.w3.org/2000/svg">
<g clip-path="url(#clip0_18_47)">
<path d="M169.812 104.5C177.911 104.5 185.313 106.938 191.583 111.118V69.6667C191.583 60.0875 183.746 52.25 174.167 52.25H119.391L110.16 43.0192L122.439 30.7404L116.256 24.5575L85.5158 55.2979L91.6987 61.4808L103.977 49.2021L113.208 58.4329V78.375C113.208 87.9542 105.371 95.7917 95.7916 95.7917H91.0891C99.3621 105.022 104.5 117.214 104.5 130.625C104.5 133.586 104.152 136.46 103.716 139.333H131.06C133.237 119.74 149.696 104.5 169.812 104.5Z" fill="#20DBCC"/>
<path d="M169.812 113.208C153.005 113.208 139.333 126.88 139.333 143.688C139.333 160.495 153.005 174.167 169.812 174.167C186.62 174.167 200.292 160.495 200.292 143.688C200.292 126.88 186.62 113.208 169.812 113.208ZM169.812 156.75C162.585 156.75 156.75 150.915 156.75 143.688C156.75 136.46 162.585 130.625 169.812 130.625C177.04 130.625 182.875 136.46 182.875 143.688C182.875 150.915 177.04 156.75 169.812 156.75Z" fill="#20DBCC"/>
<path d="M34.8333 78.375H78.375C78.375 68.7959 70.5375 60.9584 60.9583 60.9584H34.8333C30.0437 60.9584 26.125 64.8771 26.125 69.6667C26.125 74.4563 30.0437 78.375 34.8333 78.375Z" fill="#20DBCC"/>
<path d="M85.6029 120.349L84.0354 116.256L92.1342 113.208C88.1283 103.978 80.9875 96.5755 72.0179 92.0471L68.5346 99.7975L64.5287 97.9688L68.0121 90.1313C63.2225 88.2155 57.8233 87.0834 52.25 87.0834C47.6346 87.0834 43.1933 88.0413 39.0133 89.3475L41.9742 97.2721L37.8812 98.8396L34.8333 90.7409C25.6025 94.7467 18.2004 101.888 13.6721 110.857L21.4225 114.34L19.5937 118.346L11.7562 114.863C9.8404 119.653 8.70831 125.052 8.70831 130.625C8.70831 135.24 9.66623 139.682 10.9725 143.862L18.8971 140.901L20.4646 144.994L12.3658 148.042C16.3716 157.273 23.5125 164.675 32.4821 169.203L35.9654 161.453L39.9712 163.281L36.4879 171.119C41.2775 173.035 46.6767 174.167 52.25 174.167C56.8654 174.167 61.3066 173.209 65.4866 171.903L62.5258 163.978L66.6187 162.41L69.6666 170.509C78.8975 166.503 86.2996 159.363 90.8279 150.393L83.0775 146.91L84.9062 142.904L92.7437 146.387C94.6596 141.598 95.7917 136.198 95.7917 130.625C95.7917 126.01 94.8337 121.568 93.5275 117.388L85.6029 120.349ZM62.2646 154.747C48.9408 160.233 33.6141 153.963 28.1279 140.64C22.6416 127.316 28.9116 111.989 42.2354 106.503C55.5591 101.017 70.8858 107.287 76.3721 120.61C81.9454 133.934 75.5883 149.261 62.2646 154.747Z" fill="#20DBCC"/>
</g>
<defs>
<clipPath id="clip0_18_47">
<rect width="209" height="209" fill="white"/>
</clipPath>
</defs>
</svg>
