<svg width="63" height="63" viewBox="0 0 63 63" fill="none" xmlns="http://www.w3.org/2000/svg">
<g clip-path="url(#clip0_15_166)">
<path d="M57.75 15.0149L45.675 4.88245L42.2887 8.8987L54.3637 19.0312L57.75 15.0149ZM20.685 8.8987L17.325 4.88245L5.25 14.9887L8.63625 19.0049L20.685 8.8987ZM32.8125 20.9999H28.875V36.7499L41.3438 44.2312L43.3125 41.0024L32.8125 34.7812V20.9999ZM31.5 10.4999C18.4538 10.4999 7.875 21.0787 7.875 34.1249C7.875 47.1712 18.4275 57.7499 31.5 57.7499C44.5462 57.7499 55.125 47.1712 55.125 34.1249C55.125 21.0787 44.5462 10.4999 31.5 10.4999ZM31.5 52.4999C21.3412 52.4999 13.125 44.2837 13.125 34.1249C13.125 23.9662 21.3412 15.7499 31.5 15.7499C41.6587 15.7499 49.875 23.9662 49.875 34.1249C49.875 44.2837 41.6587 52.4999 31.5 52.4999Z" fill="#17A19E"/>
</g>
<defs>
<clipPath id="clip0_15_166">
<rect width="63" height="63" fill="white"/>
</clipPath>
</defs>
</svg>
