<svg width="52" height="52" viewBox="0 0 52 52" fill="none" xmlns="http://www.w3.org/2000/svg">
<g clip-path="url(#clip0_15_136)">
<path fill-rule="evenodd" clip-rule="evenodd" d="M26 4.33331C14.04 4.33331 4.33331 14.04 4.33331 26C4.33331 37.96 14.04 47.6666 26 47.6666C37.96 47.6666 47.6666 37.96 47.6666 26C47.6666 14.04 37.96 4.33331 26 4.33331ZM36.6166 33.5616L33.5833 36.595C33.15 37.0283 32.4783 37.0283 32.045 36.595L24.6566 29.2066C22.0133 30.1383 18.9366 29.575 16.8133 27.4516C14.4083 25.0466 13.9966 21.4066 15.535 18.5683L20.6266 23.66L23.6816 20.605L18.59 15.535C21.45 13.9966 25.0683 14.4083 27.4733 16.8133C29.5966 18.9366 30.16 22.0133 29.2283 24.6566L36.6166 32.045C37.0283 32.4566 37.0283 33.15 36.6166 33.5616Z" fill="#20DBCC"/>
</g>
<defs>
<clipPath id="clip0_15_136">
<rect width="52" height="52" fill="white"/>
</clipPath>
</defs>
</svg>
