<svg width="1292" height="57" viewBox="0 0 1292 57" fill="none" xmlns="http://www.w3.org/2000/svg">
<path d="M0 3.00002H51.5M1184.5 3.00002H1270L1236 54.5M1184.5 3.00002H1081.5M1184.5 3.00002L1133 54.5M1184.5 3.00002L1236 54.5M0 54.5L51.5 3.00002M0 54.5H103M0 54.5L1184.5 54.5M51.5 3.00002L103 54.5M51.5 3.00002H154.5M103 54.5L154.5 3.00002M103 54.5H206M154.5 3.00002L206 54.5M154.5 3.00002H257.5M206 54.5L257.5 3.00002M206 54.5H309M257.5 3.00002L309 54.5M257.5 3.00002H360.5M309 54.5L360.5 3.00002M309 54.5H412M360.5 3.00002L412 54.5M360.5 3.00002H463.5M412 54.5L463.5 3.00002M412 54.5H515M463.5 3.00002L515 54.5M463.5 3.00002H566.5M515 54.5L566.5 3.00002M515 54.5H618M566.5 3.00002L618 54.5M566.5 3.00002H669.5M618 54.5L669.5 3.00002M618 54.5H721M669.5 3.00002L721 54.5M669.5 3.00002H772.5M721 54.5L772.5 3.00002M721 54.5H824M772.5 3.00002L824 54.5M772.5 3.00002H875.5M824 54.5L875.5 3.00002M824 54.5H927M875.5 3.00002L927 54.5M875.5 3.00002H978.5M927 54.5L978.5 3.00002M927 54.5H1030M978.5 3.00002L1030 54.5M978.5 3.00002H1081.5M1030 54.5L1081.5 3.00002M1030 54.5H1133M1081.5 3.00002L1133 54.5M1133 54.5H1236" stroke="#20DBCC" stroke-width="5"/>
<circle cx="1266.5" cy="28.5" r="22.5" stroke="#20DBCC" stroke-width="6"/>
<circle cx="1266.5" cy="28.5" r="11.5" stroke="#20DBCC" stroke-width="6"/>
</svg>
